# xmcd CD Database Entry
#
# Track frame offsets:
# 150
# 30632
# 66081
# 83062
# 110670
# 141412
# 149517
# 158486
# 179550
# 184330
# 220196
# 239886
# 244360
# 265898
#
# Disc length: 3739 seconds
#
# Revision: 2
# Processed by: cddbd v1.4PL0 Copyright (c) Steve Scherf et al.
# Submitted via: tcd 2.0b
#
DISCID=db0e990e
DTITLE=Leo Gasperoni Mamud Band feat. Lester Bowie - Amore Pirata
DYEAR=1900
DGENRE=
TTITLE0=Ya Baby
TTITLE1=Culetti Umidi
TTITLE2=Leo, Parte Prima
TTITLE3=Leo, Parte Seconda
TTITLE4=Parakolo
TTITLE5=Lirica Dolap
TTITLE6=Hicaz Dolap
TTITLE7=Ti Voglio Amar
TTITLE8=Bisi Bisi
TTITLE9=Amore Pirata
TTITLE10=Kustino Oro
TTITLE11=Black Orkestar Suite - Black Preludio
TTITLE12=Black Orkestar Suite - Black Orkestar, Black Mangialajo
TTITLE13=Black Orkestar Suite - Lumen Black Lumen
EXTD=
EXTT0=
EXTT1=
EXTT2=
EXTT3=
EXTT4=
EXTT5=
EXTT6=
EXTT7=
EXTT8=
EXTT9=
EXTT10=
EXTT11=
EXTT12=
EXTT13=
PLAYORDER=
